<svg width="69" height="69" viewBox="0 0 69 69" fill="none" xmlns="http://www.w3.org/2000/svg">
<path opacity="0.3" d="M69 4C69 1.79086 67.2091 0 65 0H21C12.1634 0 5 7.16344 5 16V60C5 62.2091 6.79086 64 9 64H53C61.8366 64 69 56.8366 69 48V4Z" fill="#53E1A5"/>
<path d="M64 9C64 6.79086 62.2091 5 60 5H16C7.16344 5 0 12.1634 0 21V65C0 67.2091 1.79086 69 4 69H48C56.8366 69 64 61.8366 64 53V9Z" fill="#53E1A5"/>
<path d="M48.3699 17.025C48.3283 17.0217 48.2933 17 48.2499 17H30.3333C27.5766 17 25.3333 19.2433 25.3333 22V23.6667C25.3333 24.5867 26.0799 25.3333 26.9999 25.3333C27.9199 25.3333 28.6666 24.5867 28.6666 23.6667V22C28.6666 21.0817 29.4149 20.3333 30.3333 20.3333H38.0983L37.5899 20.5033C36.2399 20.97 35.3333 22.2417 35.3333 23.6667V48.6667H30.3333C29.4149 48.6667 28.6666 47.9183 28.6666 47V43.6667C28.6666 42.7467 27.9199 42 26.9999 42C26.0799 42 25.3333 42.7467 25.3333 43.6667V47C25.3333 49.7567 27.5766 52 30.3333 52H35.3333V53.6667C35.3333 55.505 36.8283 57 38.6666 57C39.0233 57 39.3616 56.9483 39.7283 56.835L49.7416 53.4967C51.0932 53.03 51.9999 51.7583 51.9999 50.3333V20.3333C51.9999 18.39 50.3249 16.8667 48.3699 17.025Z" fill="#FCFCFC"/>
<path d="M29.845 32.4883L23.1783 25.8217C22.7017 25.345 21.985 25.2017 21.3617 25.46C20.74 25.7183 20.3333 26.3267 20.3333 27V32H13.6667C12.7467 32 12 32.7467 12 33.6667C12 34.5867 12.7467 35.3333 13.6667 35.3333H20.3333V40.3333C20.3333 41.0067 20.74 41.615 21.3617 41.8733C21.985 42.1317 22.7017 41.9883 23.1783 41.5117L29.845 34.845C30.4967 34.1933 30.4967 33.14 29.845 32.4883Z" fill="#FCFCFC"/>
</svg>
