<svg width="69" height="69" viewBox="0 0 69 69" fill="none" xmlns="http://www.w3.org/2000/svg">
<path opacity="0.3" d="M0 4C0 1.79086 1.79086 0 4 0H48C56.8366 0 64 7.16344 64 16V60C64 62.2091 62.2091 64 60 64H16C7.16344 64 0 56.8366 0 48V4Z" fill="#79DCF2"/>
<path d="M5 9C5 6.79086 6.79086 5 9 5H53C61.8366 5 69 12.1634 69 21V65C69 67.2091 67.2091 69 65 69H21C12.1634 69 5 61.8366 5 53V9Z" fill="#79DCF2"/>
<g clip-path="url(#clip0)">
<path d="M42.2732 32.0745C42.0151 31.8165 41.6552 31.6685 41.2859 31.6685C40.9113 31.6685 40.5608 31.8126 40.2986 32.0745L35.4097 36.9633L33.7215 35.2749C33.4578 35.012 33.1075 34.8672 32.7351 34.8672C32.3625 34.8672 32.0119 35.0122 31.7479 35.276C31.4841 35.5399 31.3388 35.8907 31.3388 36.2636C31.3388 36.6368 31.4843 36.9876 31.7478 37.251L34.4233 39.9267C34.6848 40.1877 35.0352 40.3314 35.4095 40.3314C35.4096 40.3314 35.4096 40.3314 35.4096 40.3314C35.7842 40.3314 36.1344 40.1876 36.3972 39.9257L42.2735 34.0496C42.8177 33.5053 42.8178 32.6195 42.2732 32.0745Z" fill="#FCFCFC"/>
<path d="M53.3028 25.2437C53.2807 24.9893 53.1266 24.7652 52.8971 24.6536L37.3176 17.0732C37.1171 16.9756 36.8827 16.9756 36.6822 17.0732L21.1028 24.6535C20.8732 24.7652 20.7191 24.9892 20.6971 25.2436C20.6772 25.4721 20.2304 30.9187 21.9515 37.5711C22.9653 41.4897 24.5265 45.0051 26.5914 48.0195C29.1813 51.8001 32.5707 54.7942 36.6656 56.9185C36.7704 56.9729 36.8853 57.0001 37 57.0001C37.1147 57.0001 37.2296 56.9729 37.3344 56.9185C41.4292 54.7942 44.8188 51.8002 47.4087 48.0195C49.4736 45.0051 51.0347 41.4897 52.0485 37.5711C53.7694 30.9187 53.3227 25.4723 53.3028 25.2437ZM36.9999 45.1191C31.907 45.1191 27.7637 40.9757 27.7637 35.8828C27.7637 30.7899 31.907 26.6466 36.9999 26.6466C42.0928 26.6466 46.2361 30.7899 46.2361 35.8828C46.2361 40.9757 42.0928 45.1191 36.9999 45.1191Z" fill="#FCFCFC"/>
</g>
<defs>
<clipPath id="clip0">
<rect width="40" height="40" fill="white" transform="translate(17 17)"/>
</clipPath>
</defs>
</svg>
