<svg width="69" height="69" viewBox="0 0 69 69" fill="none" xmlns="http://www.w3.org/2000/svg">
<path opacity="0.3" d="M69 4C69 1.79086 67.2091 0 65 0H21C12.1634 0 5 7.16344 5 16V60C5 62.2091 6.79086 64 9 64H53C61.8366 64 69 56.8366 69 48V4Z" fill="#258AFF"/>
<path d="M64 9C64 6.79086 62.2091 5 60 5H16C7.16344 5 0 12.1634 0 21V65C0 67.2091 1.79086 69 4 69H48C56.8366 69 64 61.8366 64 53V9Z" fill="#258AFF"/>
<g clip-path="url(#clip0)">
<path d="M32 17C23.5671 17 16.7058 23.8613 16.7058 32.2942V46.4116C16.7058 48.358 18.2891 49.9413 20.2352 49.9413C22.1816 49.9413 23.7648 48.358 23.7648 46.4116V34.6471C23.7648 32.701 22.1816 31.1177 20.2352 31.1177C19.8391 31.1177 19.4643 31.198 19.1082 31.3188C19.6102 24.6382 25.1943 19.3529 32 19.3529C38.8021 19.3529 44.3846 24.6334 44.8912 31.3094C44.5372 31.1882 44.1603 31.1177 43.7648 31.1177C41.8184 31.1177 40.2352 32.701 40.2352 34.6471V46.4116C40.2352 48.358 41.8184 49.9413 43.7648 49.9413C44.1793 49.9413 44.5714 49.8564 44.9413 49.7246V51.1177C44.9413 51.7668 44.4127 52.2942 43.7648 52.2942H35.3127C34.8253 50.9276 33.5317 49.9413 32 49.9413C30.0539 49.9413 28.4706 51.5245 28.4706 53.4706C28.4706 55.4167 30.0539 57 32 57C33.5317 57 34.8253 56.0134 35.3127 54.6471H43.7648C45.7109 54.6471 47.2942 53.0638 47.2942 51.1177C47.2942 44.0413 47.2942 39.3782 47.2942 32.2942C47.2942 23.8613 40.4329 17 32 17V17Z" fill="#FCFCFC"/>
<path d="M49.6471 33.6873V47.3713C51.0134 46.8843 52 45.5906 52 44.0587V36.9999C52 35.4683 51.0134 34.1746 49.6471 33.6873Z" fill="#FCFCFC"/>
<path d="M12 36.9999V44.0587C12 45.5906 12.9866 46.8843 14.3529 47.3713V33.6873C12.9866 34.1746 12 35.4683 12 36.9999Z" fill="#FCFCFC"/>
</g>
<defs>
<clipPath id="clip0">
<rect width="40" height="40" fill="white" transform="translate(12 17)"/>
</clipPath>
</defs>
</svg>
