<svg width="69" height="69" viewBox="0 0 69 69" fill="none" xmlns="http://www.w3.org/2000/svg">
<path opacity="0.3" d="M0 4C0 1.79086 1.79086 0 4 0H48C56.8366 0 64 7.16344 64 16V60C64 62.2091 62.2091 64 60 64H16C7.16344 64 0 56.8366 0 48V4Z" fill="#F2994A"/>
<path d="M5 9C5 6.79086 6.79086 5 9 5H53C61.8366 5 69 12.1634 69 21V65C69 67.2091 67.2091 69 65 69H21C12.1634 69 5 61.8366 5 53V9Z" fill="#F2994A"/>
<path d="M55.75 17.0015H18.25C17.56 17.0015 17 17.5615 17 18.2515V35.7515C17 36.4415 17.56 37.0015 18.25 37.0015H22.845C23.84 35.259 24.5075 33.574 24.9175 32.0015H24.5C23.12 32.0015 22 30.8815 22 29.5015V24.5015C22 23.1215 23.12 22.0015 24.5 22.0015H49.5C50.88 22.0015 52 23.1215 52 24.5015V29.5015C52 30.6515 51.2075 31.5765 50.1525 31.869C49.86 33.4915 49.3775 35.214 48.665 37.0015H55.75C56.44 37.0015 57 36.4415 57 35.7515V18.2515C57 17.5615 56.44 17.0015 55.75 17.0015Z" fill="#FCFCFC"/>
<path d="M47.8875 24.5012H27.8675C28.31 27.7512 28.2025 33.0762 24.685 38.8487C18.2775 49.3587 22.0075 56.0887 22.1675 56.3712C22.39 56.7587 22.805 56.9987 23.2525 56.9987H40.7525C41.195 56.9987 41.6025 56.7587 41.8275 56.3787C42.0525 55.9987 42.0575 55.5212 41.8425 55.1337C41.7125 54.9012 38.7375 49.3137 44.32 40.1512C48.1225 33.9137 48.345 28.1962 47.8875 24.5012ZM32 28.2512C32 27.5612 32.56 27.0012 33.25 27.0012C33.94 27.0012 34.5 27.5612 34.5 28.2512V30.7512C34.5 31.4412 33.94 32.0012 33.25 32.0012C32.56 32.0012 32 31.4412 32 30.7512V28.2512ZM37 50.7512C37 51.4412 36.44 52.0012 35.75 52.0012C35.06 52.0012 34.5 51.4412 34.5 50.7512V48.2512C34.5 47.5612 35.06 47.0012 35.75 47.0012C36.44 47.0012 37 47.5612 37 48.2512V50.7512ZM34.5 43.8762C32.4325 43.8762 30.75 41.9137 30.75 39.5012C30.75 37.0887 32.4325 35.1262 34.5 35.1262C36.5675 35.1262 38.25 37.0887 38.25 39.5012C38.25 41.9137 36.5675 43.8762 34.5 43.8762Z" fill="#FCFCFC"/>
</svg>
